<svg xmlns="http://www.w3.org/2000/svg" width="215" height="235" viewBox="0 0 215 235" version="1.1"><path d="M 175 5 L 205.500 5.544 175.500 5.891 C 159 6.081, 145.162 6.184, 144.750 6.118 C 144.338 6.053, 144.053 6.338, 144.118 6.750 C 144.413 8.617, 143.912 10, 142.941 10 C 142.359 10, 142.200 9.438, 142.588 8.750 C 142.976 8.063, 141.446 9.261, 139.188 11.413 C 136.930 13.564, 135.266 15.622, 135.491 15.985 C 135.715 16.348, 133.202 19.018, 129.907 21.919 C 124.740 26.467, 124.093 27.412, 125.208 28.788 C 126.018 29.789, 126.064 30.123, 125.330 29.682 C 124.646 29.273, 121.945 31.094, 118.830 34.066 C 115.899 36.863, 114.063 38.866, 114.750 38.517 C 117.494 37.123, 115.789 39.968, 112.750 41.852 C 109.074 44.132, 103.147 49.989, 102.986 51.500 C 102.828 52.988, 99.036 58.672, 99.017 57.450 C 99.008 56.873, 99.563 55.748, 100.250 54.950 C 100.938 54.153, 99.606 55.261, 97.291 57.413 C 94.977 59.564, 93.304 61.684, 93.575 62.122 C 94.168 63.081, 91.858 67, 90.700 67 C 90.250 67, 90.199 66.438, 90.585 65.750 C 90.972 65.063, 89.218 66.487, 86.688 68.916 C 84.157 71.344, 82.300 73.676, 82.560 74.097 C 82.820 74.518, 82.077 75.533, 80.908 76.352 C 79.739 77.170, 79.080 78.321, 79.444 78.909 C 79.827 79.529, 79.541 79.761, 78.764 79.463 C 78.027 79.180, 76.091 80.405, 74.462 82.186 C 72.833 83.967, 72.216 84.882, 73.092 84.220 C 73.968 83.559, 75.052 83.351, 75.502 83.759 C 75.952 84.166, 75.954 83.868, 75.506 83.095 C 74.915 82.078, 75.060 81.919, 76.029 82.518 C 77.057 83.153, 76.808 83.710, 74.955 84.922 C 73.629 85.790, 71.784 87.250, 70.855 88.167 C 69.926 89.083, 68.987 89.654, 68.768 89.435 C 68.549 89.216, 66.599 90.895, 64.435 93.165 C 62.271 95.436, 61.063 96.976, 61.750 96.588 C 63.847 95.404, 63.140 97.896, 61 99.232 C 59.900 99.919, 59 101.048, 59 101.741 C 59 102.433, 58.523 103, 57.941 103 C 57.359 103, 57.201 102.438, 57.591 101.750 C 57.981 101.063, 56.675 102.034, 54.689 103.908 C 52.703 105.783, 51.268 107.625, 51.501 108.001 C 51.733 108.377, 49.472 110.801, 46.477 113.387 C 43.481 115.973, 41.095 118.407, 41.174 118.795 C 41.463 120.212, 39.754 123, 38.596 123 C 36.630 123, 30.209 130.366, 30.528 132.255 C 30.691 133.220, 30.411 133.754, 29.905 133.441 C 29.400 133.129, 28.717 133.574, 28.388 134.431 C 28.059 135.288, 27.456 135.782, 27.048 135.530 C 26.011 134.889, 20.670 140.640, 20.364 142.728 C 20.225 143.672, 19.366 144.990, 18.456 145.656 C 17.440 146.399, 17.106 147.376, 17.592 148.183 C 18.229 149.242, 18.086 149.259, 16.866 148.272 C 15.610 147.256, 14.761 147.652, 11.924 150.578 C 10.041 152.521, 8.642 154.199, 8.815 154.306 C 9.748 154.883, 7.607 157.886, 6.645 157.348 C 5.953 156.960, 5.995 157.240, 6.750 158.053 C 8.418 159.850, 8.557 221.091, 6.900 224.186 C 6.101 225.681, 6.101 226.056, 6.900 225.562 C 7.505 225.188, 8 225.359, 8 225.941 C 8 226.523, 8.787 227.007, 9.750 227.015 C 11.246 227.028, 11.282 227.172, 10 228 C 8.895 228.714, 9.553 228.969, 12.500 228.969 C 15.064 228.969, 16.021 228.666, 15.166 228.124 C 14.084 227.438, 14.119 227.168, 15.352 226.695 C 16.187 226.375, 17.089 226.650, 17.356 227.306 C 17.702 228.157, 17.865 228.124, 17.921 227.191 C 17.964 226.471, 18.419 226.141, 18.931 226.457 C 19.443 226.774, 20.187 226.506, 20.585 225.862 C 21.037 225.131, 20.876 224.959, 20.155 225.405 C 18.157 226.639, 18.899 224.998, 21.376 222.702 C 22.683 221.491, 23.838 220.050, 23.942 219.500 C 24.046 218.950, 24.689 218.612, 25.370 218.749 C 26.052 218.886, 28.160 217.356, 30.055 215.349 C 31.950 213.342, 32.985 211.990, 32.355 212.344 C 31.725 212.699, 30.943 212.293, 30.616 211.442 C 30.289 210.589, 30.450 210.160, 30.975 210.485 C 32.122 211.194, 36.280 207.263, 35.580 206.130 C 35.310 205.692, 35.723 205.333, 36.500 205.333 C 37.277 205.333, 37.639 205.821, 37.306 206.417 C 36.972 207.012, 38.306 205.984, 40.270 204.132 C 42.523 202.006, 43.704 200.059, 43.472 198.855 C 43.270 197.805, 43.485 197.182, 43.949 197.469 C 45.022 198.132, 55.168 189.080, 54.522 188.035 C 54.258 187.608, 54.932 186.231, 56.021 184.976 C 57.109 183.721, 58 183.079, 58 183.550 C 58 184.021, 59.781 182.666, 61.959 180.540 C 64.136 178.414, 65.703 176.329, 65.442 175.907 C 65.181 175.484, 65.432 174.851, 66 174.500 C 66.568 174.149, 66.774 173.443, 66.457 172.931 C 65.958 172.123, 67.179 171.614, 69.097 171.831 C 69.425 171.868, 71.378 170.173, 73.438 168.064 C 76.114 165.324, 76.826 164.011, 75.936 163.461 C 75.080 162.931, 74.944 163.100, 75.500 164 C 76.069 164.920, 75.921 165.069, 75.003 164.502 C 73.980 163.870, 74.087 163.410, 75.496 162.379 C 76.485 161.656, 77.748 161.344, 78.302 161.687 C 78.873 162.040, 79 161.810, 78.595 161.155 C 78.203 160.520, 78.407 160, 79.048 160 C 79.689 160, 79.960 159.339, 79.651 158.532 C 78.953 156.713, 80.593 155.532, 81.585 157.138 C 82.068 157.919, 81.873 158.039, 81 157.500 C 80.101 156.944, 79.931 157.080, 80.458 157.932 C 81.010 158.826, 82.165 158.264, 84.574 155.928 C 86.415 154.144, 87.705 152.331, 87.439 151.901 C 87.173 151.471, 87.978 150.126, 89.228 148.913 C 90.478 147.699, 90.868 147.067, 90.095 147.507 C 89.175 148.033, 88.928 147.926, 89.378 147.198 C 89.755 146.587, 90.626 146.303, 91.313 146.567 C 92.001 146.830, 94.124 145.393, 96.031 143.373 C 97.939 141.353, 98.938 140.019, 98.250 140.409 C 95.920 141.731, 96.985 139.916, 100.720 136.200 C 102.766 134.165, 103.798 133.400, 103.014 134.500 C 102.229 135.600, 103.237 134.966, 105.255 133.092 C 107.272 131.217, 108.705 129.331, 108.439 128.901 C 108.173 128.471, 108.978 127.126, 110.228 125.913 C 111.478 124.699, 111.868 124.067, 111.095 124.507 C 110.147 125.049, 109.926 124.929, 110.415 124.138 C 110.813 123.494, 111.596 123.250, 112.156 123.596 C 112.715 123.942, 114.699 122.746, 116.564 120.938 C 119.237 118.347, 119.712 117.358, 118.808 116.269 C 117.919 115.198, 117.981 114.956, 119.081 115.194 C 119.861 115.362, 120.376 114.904, 120.225 114.176 C 120.072 113.437, 120.433 113.150, 121.043 113.526 C 121.660 113.908, 122.372 113.293, 122.681 112.112 C 122.982 110.963, 123.663 110.292, 124.195 110.620 C 125.711 111.557, 130.891 106.028, 130.483 103.910 C 130.285 102.882, 130.615 101.738, 131.216 101.367 C 131.922 100.930, 132.030 101.189, 131.523 102.095 C 131.090 102.868, 132.033 102.125, 133.618 100.445 C 135.203 98.765, 135.836 98.315, 135.025 99.445 C 134.214 100.575, 135.429 99.744, 137.724 97.597 C 140.020 95.450, 141.868 93.425, 141.831 93.097 C 141.612 91.162, 142.160 90, 143.292 90 C 144.672 90, 153.171 81.786, 153.273 80.354 C 153.397 78.600, 156.793 73.879, 157.153 74.959 C 157.359 75.577, 159.096 74.421, 161.014 72.391 C 162.931 70.361, 163.938 69.019, 163.250 69.409 C 162.563 69.799, 162 69.690, 162 69.166 C 162 68.642, 162.722 67.937, 163.604 67.599 C 164.489 67.259, 164.960 66.338, 164.655 65.542 C 164.278 64.560, 164.585 64.287, 165.621 64.685 C 167.414 65.373, 175.235 58.189, 174.315 56.700 C 173.983 56.164, 174.790 54.848, 176.106 53.776 C 177.423 52.704, 177.868 52.160, 177.095 52.568 C 176.191 53.045, 175.936 52.913, 176.378 52.198 C 176.755 51.587, 177.626 51.303, 178.313 51.567 C 179.001 51.830, 181.124 50.393, 183.031 48.373 C 184.939 46.353, 185.938 45.019, 185.250 45.409 C 184.563 45.799, 184 45.887, 184 45.604 C 184 44.884, 188.889 40.072, 189.773 39.923 C 190.173 39.855, 190.376 39.362, 190.225 38.826 C 190.074 38.290, 190.340 38.092, 190.817 38.387 C 192.140 39.205, 197.805 32.734, 197.476 30.781 C 197.316 29.836, 197.497 29.161, 197.878 29.281 C 198.258 29.401, 199.903 28.128, 201.535 26.452 C 203.166 24.775, 203.634 24.438, 202.576 25.702 C 199.232 29.695, 201.402 28.191, 206.042 23.300 C 208.494 20.715, 209.713 19.196, 208.750 19.923 C 207.787 20.650, 207 20.840, 207 20.345 C 207 19.015, 210.726 16.060, 211.468 16.802 C 211.819 17.152, 211.780 16.591, 211.383 15.555 C 210.970 14.481, 211.055 13.916, 211.580 14.240 C 212.086 14.553, 212.495 13.169, 212.489 11.166 C 212.480 8.496, 212.010 7.433, 210.726 7.186 C 209.694 6.987, 209.264 6.367, 209.680 5.674 C 210.067 5.028, 209.612 5.126, 208.669 5.891 C 207.170 7.108, 207.033 7.076, 207.584 5.641 C 208.161 4.138, 205.540 4.019, 176.357 4.228 L 144.500 4.456 175 5 M 137.500 14 C 136.505 15.100, 136.102 16, 136.604 16 C 137.107 16, 138.081 15.100, 138.768 14 C 139.455 12.900, 139.858 12, 139.663 12 C 139.469 12, 138.495 12.900, 137.500 14 M 127.946 24.561 C 126.051 26.520, 125.175 27.839, 126 27.493 C 127.380 26.914, 132.637 21, 131.772 21 C 131.563 21, 129.842 22.603, 127.946 24.561 M 118.605 34.890 C 116.486 37.102, 116.149 37.961, 117.168 38.551 C 117.901 38.974, 118.156 38.942, 117.736 38.480 C 117.316 38.017, 118.187 36.370, 119.673 34.819 C 121.159 33.269, 122.149 32, 121.874 32 C 121.599 32, 120.128 33.301, 118.605 34.890 M 193.571 34.571 C 191.286 36.857, 191.643 37.633, 194 35.500 C 195.100 34.505, 196 33.535, 196 33.345 C 196 32.602, 195.073 33.070, 193.571 34.571 M 109 46.059 C 109 46.641, 109.450 46.840, 110 46.500 C 110.550 46.160, 111 45.684, 111 45.441 C 111 45.198, 110.550 45, 110 45 C 109.450 45, 109 45.477, 109 46.059 M 181.099 48.250 C 179.722 50.492, 179.724 50.493, 181.858 48.595 C 184.150 46.557, 184.446 46, 183.241 46 C 182.823 46, 181.859 47.013, 181.099 48.250 M 105.405 49.142 C 103.507 51.276, 103.508 51.278, 105.750 49.901 C 106.987 49.141, 108 48.177, 108 47.759 C 108 46.554, 107.443 46.850, 105.405 49.142 M 172.009 58.489 C 171.329 59.308, 170.262 59.686, 169.637 59.329 C 169.012 58.972, 168.834 59.048, 169.241 59.498 C 169.649 59.948, 169.441 61.032, 168.780 61.908 C 168.118 62.784, 169.022 62.178, 170.788 60.563 C 172.555 58.948, 174 57.485, 174 57.313 C 174 56.600, 173.169 57.091, 172.009 58.489 M 95.569 59.924 C 93.913 61.754, 93.914 61.836, 95.580 61.591 C 96.545 61.450, 97.444 60.584, 97.578 59.667 C 97.889 57.551, 97.694 57.575, 95.569 59.924 M 86.109 70.387 C 84.304 72.250, 83.264 74.045, 83.799 74.376 C 84.335 74.707, 85.018 74.037, 85.319 72.888 C 85.680 71.506, 86.311 71.056, 87.183 71.560 C 87.907 71.978, 88.162 71.948, 87.748 71.491 C 87.334 71.035, 87.741 69.838, 88.653 68.831 C 91.558 65.621, 89.521 66.867, 86.109 70.387 M 159.405 72.250 L 157.500 74.500 159.750 72.595 C 161.864 70.805, 162.455 70, 161.655 70 C 161.465 70, 160.453 71.013, 159.405 72.250 M 150.490 82.016 C 150.144 82.575, 149.373 82.731, 148.776 82.362 C 148.157 81.979, 147.976 82.153, 148.355 82.765 C 148.720 83.356, 147.821 84.782, 146.357 85.934 C 144.893 87.086, 143.905 88.238, 144.162 88.496 C 144.420 88.753, 146.380 87.172, 148.518 84.982 C 150.656 82.792, 152.116 81, 151.762 81 C 151.408 81, 150.835 81.457, 150.490 82.016 M 65.437 93.155 C 63.822 94.890, 63.175 95.930, 64 95.466 C 64.825 95.002, 66.093 93.800, 66.818 92.794 C 67.544 91.789, 68.626 91.269, 69.223 91.638 C 69.871 92.039, 70.022 91.844, 69.595 91.155 C 68.648 89.621, 68.791 89.553, 65.437 93.155 M 138.333 94.651 C 138.333 95.635, 138.670 95.689, 139.667 94.862 C 140.400 94.253, 141 93.660, 141 93.544 C 141 93.428, 140.400 93.333, 139.667 93.333 C 138.933 93.333, 138.333 93.926, 138.333 94.651 M 53.405 106.250 L 51.500 108.500 54 106.511 C 55.375 105.417, 56.688 104.404, 56.917 104.261 C 57.146 104.117, 56.878 104, 56.322 104 C 55.765 104, 54.453 105.013, 53.405 106.250 M 127.573 106.521 C 126.513 107.323, 125.878 108.212, 126.162 108.496 C 126.447 108.780, 127.496 108.110, 128.494 107.006 C 130.621 104.657, 130.277 104.476, 127.573 106.521 M 45.872 114.750 C 44.629 116.336, 44.664 116.371, 46.250 115.128 C 47.212 114.373, 48 113.585, 48 113.378 C 48 112.555, 47.179 113.084, 45.872 114.750 M 42.543 117.931 C 42.226 118.443, 42.494 119.187, 43.138 119.585 C 43.836 120.017, 44.042 119.877, 43.648 119.240 C 43.285 118.652, 43.553 117.943, 44.244 117.664 C 45.143 117.302, 45.161 117.135, 44.309 117.079 C 43.654 117.036, 42.859 117.419, 42.543 117.931 M 117.500 117.765 C 116.950 118.169, 115.607 119.625, 114.516 121 C 112.858 123.088, 113.064 123.016, 115.766 120.563 C 118.686 117.911, 119.477 116.971, 118.750 117.015 C 118.612 117.024, 118.050 117.361, 117.500 117.765 M 36.500 125 C 36.160 125.550, 36.359 126, 36.941 126 C 37.523 126, 38 125.550, 38 125 C 38 124.450, 37.802 124, 37.559 124 C 37.316 124, 36.840 124.450, 36.500 125 M 32.500 129 C 31.505 130.100, 31.194 131, 31.810 131 C 32.426 131, 33.411 130.100, 34 129 C 34.589 127.900, 34.899 127, 34.690 127 C 34.481 127, 33.495 127.900, 32.500 129 M 106 129.927 C 106 130.436, 105.213 131.059, 104.250 131.311 C 102.774 131.697, 102.754 131.786, 104.128 131.884 C 105.023 131.948, 106.315 131.325, 107 130.500 C 107.860 129.464, 107.898 129, 107.122 129 C 106.505 129, 106 129.417, 106 129.927 M 22.924 139.670 L 20.500 142.339 23.219 140.420 C 24.714 139.364, 25.951 138.162, 25.969 137.750 C 26.020 136.519, 25.472 136.864, 22.924 139.670 M 94.491 141.825 C 94.762 142.095, 94.432 143.032, 93.759 143.908 C 93.009 144.883, 93.399 144.762, 94.767 143.595 C 97.416 141.335, 97.417 141.333, 95.500 141.333 C 94.675 141.333, 94.221 141.554, 94.491 141.825 M 12.437 151.077 C 10.764 152.830, 10.146 154.014, 11 153.827 C 11.825 153.647, 12.834 152.684, 13.242 151.686 C 13.649 150.688, 14.362 150.106, 14.825 150.392 C 15.288 150.678, 15.667 150.257, 15.667 149.456 C 15.667 147.590, 15.856 147.496, 12.437 151.077 M 83.580 154.781 L 81.661 157.500 84.330 155.076 C 87.136 152.528, 87.481 151.980, 86.250 152.031 C 85.838 152.049, 84.636 153.286, 83.580 154.781 M 71.924 167.750 L 69.500 170.500 72.250 168.076 C 73.763 166.742, 75 165.505, 75 165.326 C 75 164.541, 74.190 165.180, 71.924 167.750 M 62.892 177.250 C 62.072 177.938, 60.766 179.400, 59.989 180.500 C 59.212 181.600, 60.022 181.178, 61.788 179.563 C 63.555 177.948, 65 176.485, 65 176.313 C 65 175.725, 64.383 176, 62.892 177.250 M 52.362 187.777 C 52.731 188.374, 52.211 189.456, 51.206 190.182 C 49.453 191.445, 47.479 194, 48.254 194 C 48.458 194, 49.872 192.699, 51.395 191.110 C 53.404 189.013, 53.825 188.010, 52.927 187.455 C 52.160 186.981, 51.946 187.103, 52.362 187.777 M 40.405 202.250 L 38.500 204.500 40.750 202.595 C 42.864 200.805, 43.455 200, 42.655 200 C 42.465 200, 41.453 201.012, 40.405 202.250 M 28.208 215.039 C 27.508 216.160, 26.430 216.766, 25.813 216.384 C 25.105 215.947, 24.971 216.145, 25.451 216.921 C 26.010 217.825, 26.845 217.555, 28.605 215.901 C 31.162 213.499, 31.443 213, 30.241 213 C 29.823 213, 28.908 213.917, 28.208 215.039" stroke="none" fill="#f37d33" fill-rule="evenodd"/><path d="M 8.090 5.750 L 5.959 7.500 6.229 61.892 L 6.500 116.285 9.163 118.273 C 11.114 119.729, 12.585 120.071, 14.663 119.553 C 17.939 118.736, 20.096 116.564, 44.750 89.252 L 63 69.034 63 38.590 L 63 8.145 60.365 6.073 C 57.867 4.108, 56.493 4, 33.976 4 C 12.831 4, 9.987 4.192, 8.090 5.750 M 124.389 139.285 C 120.951 141.263, 91 173.261, 91.005 174.950 C 91.014 177.634, 93.947 181.265, 116 205.907 L 137.500 229.931 169.095 229.966 C 198.459 229.998, 200.807 229.871, 202.345 228.171 C 204.902 225.346, 204.423 219.862, 201.250 215.626 C 195.702 208.221, 133.428 140.203, 131.203 139.119 C 128.333 137.721, 127.054 137.752, 124.389 139.285" stroke="none" fill="#47bbe4" fill-rule="evenodd"/><path d="M 143.766 7.196 C 142.813 8.390, 142.239 9.573, 142.491 9.825 C 142.744 10.077, 143.749 9.318, 144.725 8.138 C 146.457 6.046, 147.214 5.987, 176 5.731 L 205.500 5.469 175.500 5.248 C 145.788 5.029, 145.483 5.047, 143.766 7.196 M 207.601 5.836 C 207.347 6.248, 208.007 6.650, 209.069 6.730 C 211.366 6.903, 211.568 6.432, 209.532 5.651 C 208.725 5.341, 207.856 5.424, 207.601 5.836 M 211.775 12.529 C 211.066 15.902, 206.637 21.261, 205.445 20.188 C 205.024 19.810, 205.021 20.092, 205.439 20.815 C 206.979 23.482, 213.540 14.856, 212.766 11.183 C 212.551 10.161, 212.161 10.691, 211.775 12.529 M 135.453 16.177 C 132.140 19.678, 132.006 19.961, 134.627 17.927 C 137.331 15.828, 140.615 12, 139.711 12 C 139.543 12, 137.627 13.880, 135.453 16.177 M 126.462 26.197 C 123.733 29.056, 122.216 30.860, 123.092 30.206 C 123.968 29.552, 125.052 29.351, 125.502 29.759 C 125.952 30.166, 126.014 29.965, 125.639 29.311 C 125.265 28.658, 125.530 27.757, 126.229 27.309 C 127.763 26.326, 132.540 21, 131.887 21 C 131.633 21, 129.192 23.339, 126.462 26.197 M 201.428 26.250 C 199.915 28.038, 198.375 29.413, 198.006 29.306 C 197.636 29.199, 197.333 29.761, 197.333 30.556 C 197.333 31.350, 197.429 32, 197.546 32 C 197.663 32, 199.418 29.975, 201.446 27.500 C 203.475 25.025, 204.919 23, 204.656 23 C 204.393 23, 202.940 24.462, 201.428 26.250 M 115.966 37.624 C 112.713 40.971, 111.613 42.544, 113.250 41.509 C 114.763 40.552, 116 39.345, 116 38.826 C 116 38.307, 116.563 38.206, 117.250 38.601 C 117.938 38.997, 118.156 38.942, 117.736 38.480 C 117.316 38.017, 118.187 36.370, 119.673 34.819 C 121.159 33.269, 122.162 32, 121.903 32 C 121.644 32, 118.972 34.531, 115.966 37.624 M 193.571 34.571 C 191.286 36.857, 191.643 37.633, 194 35.500 C 195.100 34.505, 196 33.535, 196 33.345 C 196 32.602, 195.073 33.070, 193.571 34.571 M 184.500 44.673 C 178.805 50.845, 178.801 51.238, 184.487 45.785 C 187.191 43.192, 189.200 40.905, 188.952 40.704 C 188.703 40.503, 186.700 42.289, 184.500 44.673 M 109 46.059 C 109 46.641, 109.450 46.840, 110 46.500 C 110.550 46.160, 111 45.684, 111 45.441 C 111 45.198, 110.550 45, 110 45 C 109.450 45, 109 45.477, 109 46.059 M 103.123 51.597 C 100.855 54.174, 99 56.736, 99 57.291 C 99 57.846, 100.328 56.468, 101.950 54.228 C 103.573 51.988, 105.706 49.704, 106.692 49.153 C 107.677 48.601, 108.205 47.872, 107.865 47.532 C 107.525 47.191, 105.391 49.021, 103.123 51.597 M 176.500 52 C 176.160 52.550, 176.095 53, 176.356 53 C 176.616 53, 175.449 54.559, 173.762 56.465 C 172.075 58.370, 170.201 59.648, 169.597 59.304 C 168.994 58.961, 168.834 59.048, 169.241 59.498 C 169.649 59.948, 169.449 61.032, 168.796 61.908 C 168.143 62.784, 170.151 61.061, 173.258 58.080 C 176.365 55.099, 178.677 52.286, 178.395 51.830 C 177.722 50.741, 177.252 50.783, 176.500 52 M 88.488 67.750 C 83.587 73.112, 80.572 76.643, 81.788 75.595 C 83.005 74.547, 84.029 74.097, 84.063 74.595 C 84.098 75.093, 84.544 74.459, 85.055 73.186 C 85.613 71.794, 86.446 71.158, 87.146 71.590 C 87.839 72.018, 88.040 71.874, 87.645 71.235 C 87.280 70.644, 88.014 69.337, 89.276 68.330 C 90.539 67.324, 92.352 65.375, 93.305 64 C 94.259 62.625, 95.549 61.500, 96.174 61.500 C 96.798 61.500, 97.425 60.712, 97.566 59.750 C 97.707 58.788, 97.728 58, 97.612 58 C 97.495 58, 93.390 62.388, 88.488 67.750 M 164.601 65.163 C 164.988 65.790, 164.674 66.811, 163.903 67.430 C 161.958 68.993, 157.549 74, 158.117 74 C 158.374 74, 160.511 72.036, 162.867 69.636 C 166.344 66.092, 166.844 65.154, 165.523 64.647 C 164.456 64.238, 164.139 64.415, 164.601 65.163 M 156.079 74.715 C 155.948 76.729, 149.877 83.042, 148.745 82.342 C 148.156 81.978, 147.984 82.165, 148.355 82.765 C 148.720 83.356, 147.821 84.782, 146.357 85.934 C 144.893 87.086, 143.901 88.234, 144.153 88.487 C 145.072 89.405, 157.230 76.192, 156.697 74.854 C 156.335 73.945, 156.132 73.900, 156.079 74.715 M 67.840 90.250 C 57.625 101.309, 56.312 103, 57.941 103 C 58.523 103, 59 102.597, 59 102.105 C 59 100.765, 68.086 91.461, 69.112 91.750 C 69.600 91.888, 69.947 91.663, 69.882 91.250 C 69.540 89.088, 70.321 87.965, 73.553 85.967 C 75.507 84.760, 76.860 83.527, 76.561 83.228 C 76.262 82.929, 76.519 82.080, 77.131 81.342 C 77.744 80.604, 78.034 80, 77.776 80 C 77.518 80, 73.047 84.612, 67.840 90.250 M 141.208 92.039 C 140.508 93.160, 139.574 93.855, 139.134 93.583 C 138.694 93.311, 138.333 93.756, 138.333 94.571 C 138.333 95.593, 139.215 95.210, 141.167 93.340 C 144.168 90.465, 144.457 90, 143.241 90 C 142.823 90, 141.908 90.917, 141.208 92.039 M 133.982 99.750 C 132.792 101.263, 131.522 102.433, 131.159 102.350 C 130.797 102.267, 130.604 102.579, 130.731 103.042 C 130.858 103.506, 129.845 104.763, 128.481 105.836 C 127.116 106.910, 126 108.139, 126 108.568 C 126 108.997, 127.170 108.258, 128.600 106.924 C 131.651 104.079, 137.398 97, 136.657 97 C 136.375 97, 135.172 98.237, 133.982 99.750 M 51.453 108.250 L 47.500 112.500 51.985 108.500 C 54.451 106.300, 56.664 104.388, 56.901 104.250 C 57.139 104.112, 56.900 104, 56.370 104 C 55.840 104, 53.627 105.912, 51.453 108.250 M 122.684 112.101 C 122.373 113.290, 121.661 113.908, 121.043 113.526 C 120.433 113.150, 120.072 113.437, 120.225 114.176 C 120.376 114.904, 119.904 115.376, 119.176 115.225 C 118.447 115.074, 118.119 115.384, 118.447 115.914 C 118.774 116.444, 118.470 117.242, 117.771 117.689 C 117.072 118.135, 115.615 119.625, 114.534 121 C 113.453 122.375, 115.344 120.835, 118.737 117.578 C 122.130 114.321, 124.675 111.283, 124.394 110.828 C 123.613 109.565, 123.283 109.811, 122.684 112.101 M 45.872 114.750 C 44.629 116.336, 44.664 116.371, 46.250 115.128 C 47.212 114.373, 48 113.585, 48 113.378 C 48 112.555, 47.179 113.084, 45.872 114.750 M 40.500 120 C 38.919 121.650, 38.052 123, 38.572 123 C 39.093 123, 40.092 122.083, 40.792 120.961 C 41.492 119.840, 42.570 119.234, 43.187 119.616 C 43.839 120.018, 44.032 119.861, 43.648 119.240 C 43.285 118.652, 43.553 117.943, 44.244 117.664 C 44.935 117.386, 45.022 117.122, 44.437 117.079 C 43.852 117.036, 42.081 118.350, 40.500 120 M 110.510 123.984 C 110.165 124.543, 110.168 125, 110.518 125 C 111.507 125, 105.665 130.601, 103.990 131.258 C 102.703 131.762, 102.711 131.853, 104.047 131.921 C 106.084 132.025, 113.494 124.423, 112.160 123.599 C 111.598 123.251, 110.856 123.425, 110.510 123.984 M 36.500 125 C 36.160 125.550, 36.359 126, 36.941 126 C 37.523 126, 38 125.550, 38 125 C 38 124.450, 37.802 124, 37.559 124 C 37.316 124, 36.840 124.450, 36.500 125 M 30.703 130.792 C 28.666 132.878, 27.014 135.015, 27.030 135.542 C 27.047 136.069, 27.525 135.703, 28.092 134.729 C 28.659 133.755, 29.615 133.262, 30.216 133.633 C 30.854 134.028, 31.025 133.849, 30.627 133.205 C 30.251 132.597, 30.804 131.640, 31.854 131.078 C 33.408 130.246, 35.651 127, 34.672 127 C 34.525 127, 32.740 128.706, 30.703 130.792 M 99.507 137.429 C 97.347 139.865, 95.111 141.593, 94.540 141.269 C 93.968 140.945, 93.834 141.048, 94.241 141.498 C 94.649 141.948, 94.444 143.032, 93.785 143.908 C 93.126 144.784, 94.294 143.925, 96.381 142 C 99.852 138.797, 104.622 133, 103.786 133 C 103.593 133, 101.668 134.993, 99.507 137.429 M 15.623 147.442 L 6 157.973 6 191.295 C 6 225.734, 6.387 229.180, 10.087 227.717 C 11.128 227.305, 11.039 227.137, 9.750 227.079 C 8.787 227.036, 7.988 226.438, 7.974 225.750 C 7.960 225.063, 7.952 209.243, 7.958 190.596 C 7.967 160.506, 8.154 156.487, 9.618 154.870 C 10.525 153.867, 11.606 153.256, 12.020 153.512 C 12.434 153.768, 13.018 153.037, 13.319 151.888 C 13.628 150.707, 14.340 150.092, 14.957 150.474 C 15.567 150.850, 15.928 150.563, 15.775 149.824 C 15.624 149.096, 16.096 148.624, 16.824 148.775 C 17.553 148.926, 17.866 148.592, 17.520 148.033 C 17.174 147.473, 18.953 144.924, 21.473 142.368 C 23.993 139.812, 25.872 137.539, 25.650 137.317 C 25.427 137.094, 20.915 141.651, 15.623 147.442 M 89.510 146.984 C 89.165 147.543, 89.150 148, 89.478 148 C 90.640 148, 81.888 156.500, 80.703 156.522 C 80.042 156.535, 79.610 157.227, 79.745 158.060 C 79.880 158.893, 78.611 160.389, 76.926 161.385 C 75.240 162.380, 74.124 163.457, 74.445 163.778 C 74.766 164.099, 73.809 165.743, 72.318 167.431 C 70.828 169.119, 71.841 168.250, 74.570 165.500 C 86.649 153.329, 92.056 147.153, 91.133 146.582 C 90.586 146.244, 89.856 146.425, 89.510 146.984 M 67.244 171.722 C 66.553 171.969, 66.220 172.546, 66.503 173.005 C 66.787 173.464, 65.808 174.792, 64.328 175.957 C 62.848 177.121, 60.981 179.069, 60.180 180.287 C 59.380 181.504, 61.127 180.154, 64.064 177.286 C 69.132 172.338, 70.058 170.718, 67.244 171.722 M 55.581 185.522 C 54.573 186.864, 53.285 187.676, 52.720 187.327 C 52.150 186.975, 51.991 187.176, 52.362 187.777 C 52.731 188.374, 52.211 189.456, 51.206 190.182 C 50.200 190.907, 49.009 192.175, 48.558 193 C 48.107 193.825, 50.138 192.154, 53.071 189.286 C 56.005 186.418, 58.182 183.849, 57.909 183.576 C 57.637 183.304, 56.589 184.179, 55.581 185.522 M 45.490 197.016 C 45.144 197.575, 44.330 197.728, 43.681 197.356 C 43.031 196.984, 42.844 197.058, 43.264 197.520 C 43.684 197.983, 42.787 199.743, 41.270 201.431 C 39.644 203.241, 40.254 202.878, 42.756 200.547 C 45.090 198.373, 47 196.460, 47 196.297 C 47 195.628, 46.076 196.067, 45.490 197.016 M 35.580 206.130 C 36.340 207.360, 32.073 211.163, 30.809 210.382 C 30.145 209.972, 29.970 210.142, 30.377 210.801 C 31.245 212.205, 27.046 217.146, 25.695 216.311 C 25.099 215.943, 25.005 216.199, 25.464 216.941 C 26.011 217.827, 27.684 216.777, 31.193 213.346 C 36.995 207.674, 38.543 205.333, 36.490 205.333 C 35.719 205.333, 35.310 205.692, 35.580 206.130 M 23.500 219 C 23.160 219.550, 23.168 220, 23.518 220 C 23.868 220, 22.769 221.385, 21.077 223.077 C 19.385 224.769, 18 226.436, 18 226.780 C 18 227.124, 19.781 225.666, 21.959 223.540 C 24.136 221.414, 25.684 219.298, 25.400 218.837 C 24.722 217.741, 24.254 217.781, 23.500 219 M 15 227 C 13.718 227.828, 13.754 227.972, 15.250 227.985 C 16.212 227.993, 17 227.550, 17 227 C 17 225.780, 16.887 225.780, 15 227" stroke="none" fill="#f37c33" fill-rule="evenodd"/><path d="M 0 117.504 L 0 235.009 107.750 234.754 L 215.500 234.500 215.754 117.250 L 216.008 0 108.004 0 L 0 0 0 117.504 M 0.484 118 C 0.484 182.625, 0.603 209.063, 0.750 176.750 C 0.896 144.438, 0.896 91.563, 0.750 59.250 C 0.603 26.938, 0.484 53.375, 0.484 118 M 8.090 5.750 L 5.959 7.500 6.229 61.892 L 6.500 116.285 9.163 118.273 C 11.114 119.729, 12.585 120.071, 14.663 119.553 C 17.939 118.736, 20.096 116.564, 44.750 89.252 L 63 69.034 63 38.590 L 63 8.145 60.365 6.073 C 57.867 4.108, 56.493 4, 33.976 4 C 12.831 4, 9.987 4.192, 8.090 5.750 M 75.750 80.726 L 6 157.304 6 191.497 C 6 223.353, 6.125 225.803, 7.829 227.345 C 9.961 229.275, 14.591 229.450, 17.619 227.715 C 19.826 226.450, 206.800 23.082, 210.750 17.650 C 213.864 13.368, 213.709 8.703, 210.365 6.073 C 207.823 4.073, 206.637 4.003, 176.615 4.074 L 145.500 4.147 75.750 80.726 M 124.389 139.285 C 120.951 141.263, 91 173.261, 91.005 174.950 C 91.014 177.634, 93.947 181.265, 116 205.907 L 137.500 229.931 169.095 229.966 C 198.459 229.998, 200.807 229.871, 202.345 228.171 C 204.902 225.346, 204.423 219.862, 201.250 215.626 C 195.702 208.221, 133.428 140.203, 131.203 139.119 C 128.333 137.721, 127.054 137.752, 124.389 139.285" stroke="none" fill="#fafbfa" fill-rule="evenodd"/></svg>