<?xml version="1.0" standalone="no"?>
<!DOCTYPE svg PUBLIC "-//W3C//DTD SVG 20010904//EN"
 "http://www.w3.org/TR/2001/REC-SVG-20010904/DTD/svg10.dtd">
<svg version="1.0" xmlns="http://www.w3.org/2000/svg"
 width="32" height="32" viewBox="0 0 215.000000 235.000000"
 preserveAspectRatio="xMidYMid meet">
<g transform="translate(0.000000,235.000000) scale(0.100000,-0.100000)"
fill="#007AFF" stroke="none">
<path d="M81 2293 l-21 -18 2 -544 3 -544 27 -20 c19 -14 34 -18 55 -12 33 8
48 24 297 299 l186 207 0 304 0 304 -26 20 c-25 20 -39 21 -264 21 -212 0
-240 -2 -259 -17z m513 -34 c12 -18 15 -69 16 -293 0 -307 6 -281 -90 -391
-77 -87 -225 -248 -301 -328 -73 -75 -102 -84 -126 -37 -17 34 -19 1007 -1
1045 l11 25 238 0 c232 0 238 -1 253 -21z"/>
<path d="M1419 2267 c-20 -23 -334 -368 -698 -766 l-661 -725 0 -341 c0 -319
1 -343 18 -358 21 -20 61 -22 94 -6 13 6 73 66 134 133 61 66 484 528 940
1024 456 497 841 920 857 939 36 48 36 94 1 122 -26 20 -37 21 -338 20 l-311
-1 -36 -41z m665 -3 c33 -32 19 -64 -64 -151 -36 -37 -110 -117 -165 -178 -55
-60 -102 -112 -105 -115 -3 -3 -54 -59 -115 -125 -60 -66 -112 -122 -115 -125
-7 -7 -214 -233 -270 -295 -25 -27 -76 -83 -115 -125 -38 -42 -113 -123 -165
-180 -52 -58 -124 -137 -160 -175 -36 -39 -106 -115 -156 -170 -92 -102 -440
-481 -459 -501 -21 -22 -58 -36 -81 -30 l-24 6 0 336 0 335 62 67 c74 80 230
250 314 342 32 36 102 113 155 170 52 58 149 164 214 235 66 72 137 150 159
174 53 57 54 58 166 181 52 58 118 130 146 160 28 30 71 77 95 105 24 27 51
55 59 62 11 9 93 12 312 13 257 0 299 -2 312 -16z"/>
<path d="M1245 957 c-11 -7 -69 -64 -130 -127 -220 -230 -208 -216 -201 -244
3 -14 70 -97 149 -184 78 -87 180 -201 227 -255 l85 -97 316 0 c293 0 317 1
332 18 24 26 21 82 -5 119 -13 16 -169 191 -348 388 -179 197 -327 361 -330
365 -8 11 -47 30 -62 30 -7 -1 -22 -6 -33 -13z m86 -50 c19 -18 90 -94 158
-170 68 -75 138 -152 155 -171 173 -190 352 -390 357 -399 19 -36 19 -57 -1
-77 -20 -20 -30 -20 -312 -20 l-291 1 -36 37 c-38 40 -149 164 -197 221 -16
19 -38 45 -49 56 -137 146 -175 192 -175 213 0 8 127 149 212 233 15 15 25 29
23 31 -2 1 12 14 31 28 18 14 34 30 34 35 0 6 13 11 29 12 20 1 38 -7 62 -30z"/>
</g>
</svg>